<svg viewBox="0 0 200 200" xmlns="http://www.w3.org/2000/svg">
  <circle cx="100" cy="100" r="100" fill="#F0EDE4"/>
  <path d="M64 70 h34 v70 a17 17 0 0 1 -17 17 a17 17 0 0 1 -17 -17 Z" fill="#E9DFC4" stroke="#1B4332" stroke-width="3"/>
  <rect x="60" y="62" width="42" height="12" rx="3" fill="#1B4332"/>
  <circle cx="72" cy="100" r="2" fill="#C9B98A"/>
  <circle cx="82" cy="108" r="2" fill="#C9B98A"/>
  <circle cx="90" cy="96" r="2" fill="#C9B98A"/>
  <circle cx="78" cy="122" r="2" fill="#C9B98A"/>
  <circle cx="90" cy="130" r="2" fill="#C9B98A"/>
  <path d="M108 78 h34 v62 a17 17 0 0 1 -17 17 a17 17 0 0 1 -17 -17 Z" fill="#F0EDE4" stroke="#1B4332" stroke-width="3"/>
  <rect x="104" y="70" width="42" height="12" rx="3" fill="#1B4332"/>
  <circle cx="118" cy="104" r="3" fill="#4A2E1E"/>
  <circle cx="130" cy="112" r="3" fill="#4A2E1E"/>
  <circle cx="122" cy="122" r="3" fill="#4A2E1E"/>
  <circle cx="134" cy="128" r="3" fill="#4A2E1E"/>
  <circle cx="116" cy="132" r="3" fill="#4A2E1E"/>
</svg>
